<svg width="44" height="45" viewBox="0 0 44 45" xmlns="http://www.w3.org/2000/svg">
<path d="M22 0C9.856 0 0 10.08 0 22.5C0 34.92 9.856 45 22 45C34.144 45 44 34.92 44 22.5C44 10.08 34.144 0 22 0ZM32.208 15.3C31.878 18.855 30.448 27.495 29.722 31.4775C29.414 33.165 28.798 33.7275 28.226 33.795C26.95 33.9075 25.982 32.94 24.75 32.1075C22.814 30.8025 21.714 29.9925 19.844 28.7325C17.666 27.27 19.074 26.46 20.328 25.155C20.658 24.8175 26.29 19.575 26.4 19.1025C26.4153 19.0309 26.4132 18.9566 26.3941 18.8861C26.3749 18.8155 26.3392 18.7508 26.29 18.6975C26.158 18.585 25.982 18.63 25.828 18.6525C25.63 18.6975 22.55 20.79 16.544 24.93C15.664 25.5375 14.872 25.8525 14.168 25.83C13.376 25.8075 11.88 25.38 10.758 24.9975C9.372 24.5475 8.294 24.3 8.382 23.5125C8.426 23.1075 8.976 22.7025 10.01 22.275C16.434 19.4175 20.702 17.5275 22.836 16.6275C28.952 14.0175 30.206 13.5675 31.042 13.5675C31.218 13.5675 31.636 13.6125 31.9 13.8375C32.12 14.0175 32.186 14.265 32.208 14.445C32.186 14.58 32.23 14.985 32.208 15.3Z" fill="currentColor"/>
</svg>
