<svg width="44" height="44" viewBox="0 0 44 44" xmlns="http://www.w3.org/2000/svg">
<path fill-rule="evenodd" clip-rule="evenodd" d="M22 0C9.8494 0 0 9.8494 0 22C0 26.158 1.155 30.052 3.1636 33.3696L1.2012 40.04C1.08853 40.423 1.08111 40.8292 1.17974 41.2161C1.27836 41.6029 1.47938 41.956 1.76167 42.2383C2.04396 42.5206 2.39708 42.7216 2.78392 42.8202C3.17075 42.9189 3.57702 42.9115 3.96 42.7988L10.6304 40.8364C14.0595 42.9112 17.9921 44.0054 22 44C34.1506 44 44 34.1506 44 22C44 9.8494 34.1506 0 22 0ZM17.0236 26.9786C21.4742 31.427 25.7224 32.0144 27.2228 32.0694C29.5042 32.153 31.7262 30.4106 32.5908 28.3888C32.7 28.1373 32.7396 27.8611 32.7055 27.589C32.6715 27.317 32.565 27.059 32.3972 26.8422C31.1916 25.3022 29.5614 24.1956 27.9686 23.0956C27.636 22.8656 27.2274 22.7734 26.8283 22.8382C26.4292 22.903 26.0707 23.1198 25.828 23.4432L24.508 25.4562C24.4386 25.5644 24.3305 25.642 24.2057 25.6731C24.081 25.7042 23.9491 25.6864 23.837 25.6234C22.9416 25.1108 21.637 24.2396 20.6998 23.3024C19.7626 22.3652 18.9442 21.12 18.4844 20.2818C18.4274 20.1753 18.4109 20.0518 18.438 19.934C18.4651 19.8163 18.534 19.7124 18.6318 19.6416L20.6646 18.1324C20.9547 17.8801 21.1419 17.53 21.1906 17.1487C21.2393 16.7674 21.146 16.3814 20.9286 16.0644C19.943 14.6212 18.7946 12.7864 17.1292 11.5698C16.9143 11.414 16.6625 11.3169 16.3987 11.288C16.1348 11.2591 15.868 11.2993 15.6244 11.4048C13.6004 12.2716 11.8492 14.4936 11.9328 16.7794C11.9878 18.2798 12.5752 22.528 17.0236 26.9786Z" fill="currentColor"/>
</svg>
