<svg width="449" height="244" viewBox="0 0 449 244" fill="none" xmlns="http://www.w3.org/2000/svg">
<g clip-path="url(#clip0_156_167)">
<g opacity="0.13">
<path d="M63.8709 189.479V215.537H108.947V189.479H63.8709ZM108.947 151.241V122.405H63.8709V151.241H49.3472L68.785 104.579H21.5733L0 154.457V163.318H126.057V151.254H108.947V151.241ZM85.0197 65.5691H38.4512L27.5809 90.6881H74.561L85.0325 65.5691H85.0197Z" fill="#FF00FF"/>
<path d="M192.693 64.2958C169.898 64.2958 153.136 73.4405 143.089 90.7009H242.015C231.981 73.4405 215.244 64.2958 192.693 64.2958ZM248.151 104.579H202.483C205.326 111.074 206.368 122.495 206.368 140.566C206.368 149.788 206.085 157.312 205.429 163.318H251.354C252.551 156.36 253.142 148.772 253.142 140.566C253.142 126.817 251.457 114.765 248.138 104.579H248.151ZM192.693 216.823C215.656 216.823 232.572 207.357 242.581 189.479H142.536C152.531 207.357 169.473 216.823 192.693 216.823ZM178.813 140.579C178.813 122.508 179.855 111.087 182.749 104.592H136.991C133.698 114.778 132.039 126.83 132.039 140.579C132.039 148.785 132.63 156.36 133.827 163.331H179.752C179.096 157.325 178.813 149.813 178.813 140.579Z" fill="#FF00FF"/>
<path d="M327.485 189.479V215.537H372.561V189.479H327.485ZM372.561 151.241V122.405H327.485V151.241H312.961L332.399 104.579H285.187L263.614 154.457V163.318H389.657V151.254H372.561V151.241ZM348.633 65.5691H302.065L291.195 90.6881H338.175L348.646 65.5691H348.633Z" fill="#FF00FF"/>
<path d="M64.5913 90.7009L58.8152 104.579H11.6035L17.6111 90.7009H64.5913Z" fill="#FF00FF"/>
<path d="M238.181 104.579H192.513C190.377 99.7041 187.213 97.6334 182.723 97.6334C178.234 97.6334 174.928 99.7041 172.766 104.579H127.008C128.629 99.4726 130.687 94.8424 133.119 90.7009H232.045C234.502 94.8424 236.534 99.4855 238.181 104.579Z" fill="#FF00FF"/>
<path d="M328.205 90.7009L322.429 104.579H275.217L281.225 90.7009H328.205Z" fill="#FF00FF"/>
<path d="M139.41 163.318V186.482H122.3V189.479H77.2239V186.482H13.353V163.318H139.41Z" fill="#FF00FF"/>
<path d="M264.707 163.318C262.996 173.402 260.05 182.161 255.921 189.479H155.888C151.785 182.148 148.865 173.402 147.167 163.318H193.092C194.674 177.762 198.495 183.498 206.033 183.498C213.572 183.498 217.186 177.749 218.769 163.318H264.694H264.707Z" fill="#FF00FF"/>
<path d="M403.01 163.318V186.482H385.914V189.479H340.838V186.482H276.967V163.318H403.01Z" fill="#FF00FF"/>
<path d="M28.4945 121.839H3.92383V127.576H28.4945V121.839Z" fill="#FF00FF"/>
<path d="M221.201 123.447H196.63V135.485H221.201V123.447Z" fill="#FF00FF"/>
<path d="M378.221 131.987H353.65V144.026H378.221V131.987Z" fill="#FF00FF"/>
</g>
<g opacity="0.26">
<path d="M74.8828 189.479V215.537H119.959V189.479H74.8828ZM119.959 151.241V122.405H74.8828V151.241H60.359L79.7969 104.579H32.5852L10.999 154.457V163.318H137.068V151.254H119.959V151.241ZM96.0315 65.5691H49.4502L38.5799 90.6881H85.5601L96.0315 65.5691Z" fill="#FF00FF"/>
<path d="M203.692 64.2958C180.897 64.2958 164.135 73.4405 154.088 90.7009H253.014C242.967 73.4405 226.243 64.2958 203.692 64.2958ZM259.15 104.579H213.482C216.325 111.074 217.367 122.495 217.367 140.566C217.367 149.788 217.084 157.312 216.428 163.318H262.353C263.55 156.36 264.141 148.772 264.141 140.566C264.141 126.817 262.456 114.765 259.137 104.579H259.15ZM203.692 216.823C226.655 216.823 243.571 207.357 253.58 189.479H153.535C163.53 207.357 180.472 216.823 203.692 216.823ZM189.812 140.579C189.812 122.508 190.854 111.087 193.748 104.592H147.99C144.697 114.778 143.038 126.83 143.038 140.579C143.038 148.785 143.629 156.36 144.826 163.331H190.751C190.095 157.325 189.812 149.813 189.812 140.579Z" fill="#FF00FF"/>
<path d="M338.496 189.479V215.537H383.573V189.479H338.496ZM383.573 151.241V122.405H338.496V151.241H323.973L343.411 104.579H296.199L274.625 154.457V163.318H400.669V151.254H383.573V151.241ZM359.645 65.5691H313.077L302.206 90.6881H349.187L359.658 65.5691H359.645Z" fill="#FF00FF"/>
<path d="M75.5901 90.7009L69.8269 104.579H22.6152L28.61 90.7009H75.5901Z" fill="#FF00FF"/>
<path d="M249.18 104.579H203.512C201.376 99.7041 198.212 97.6334 193.722 97.6334C189.233 97.6334 185.927 99.7041 183.765 104.579H138.007C139.628 99.4726 141.686 94.8424 144.118 90.7009H243.044C245.501 94.8424 247.533 99.4855 249.18 104.579Z" fill="#FF00FF"/>
<path d="M339.204 90.7009L333.441 104.579H286.229L292.224 90.7009H339.204Z" fill="#FF00FF"/>
<path d="M150.421 163.318V186.482H133.299V189.479H88.2229V186.482H24.3521V163.318H150.421Z" fill="#FF00FF"/>
<path d="M275.706 163.318C273.995 173.402 271.049 182.161 266.92 189.479H166.875C162.771 182.148 159.851 173.402 158.153 163.318H204.078C205.66 177.762 209.481 183.498 217.02 183.498C224.558 183.498 228.173 177.749 229.755 163.318H275.68H275.706Z" fill="#FF00FF"/>
<path d="M414.009 163.318V186.482H396.926V189.479H351.85V186.482H287.966V163.318H414.009Z" fill="#FF00FF"/>
<path d="M39.4935 121.839H14.9229V127.576H39.4935V121.839Z" fill="#FF00FF"/>
<path d="M232.212 123.447H207.642V135.485H232.212V123.447Z" fill="#FF00FF"/>
<path d="M389.22 131.987H364.649V144.026H389.22V131.987Z" fill="#FF00FF"/>
</g>
<g opacity="0.06">
<path d="M109.861 189.479V215.537H154.937V189.479H109.861ZM154.937 151.241V122.405H109.861V151.241H95.3369L114.775 104.579H67.563L45.9897 154.457V163.318H172.046V151.254H154.937V151.241ZM131.009 65.5691H84.4409L73.5706 90.6881H120.551L131.022 65.5691H131.009Z" fill="#2D1EF4"/>
<path d="M238.683 64.2958C215.888 64.2958 199.126 73.4405 189.079 90.7009H288.005C277.97 73.4405 261.234 64.2958 238.683 64.2958ZM294.141 104.579H248.473C251.316 111.074 252.358 122.495 252.358 140.566C252.358 149.788 252.075 157.312 251.419 163.318H297.344C298.54 156.36 299.132 148.772 299.132 140.566C299.132 126.817 297.447 114.765 294.128 104.579H294.141ZM238.683 216.823C261.646 216.823 278.562 207.357 288.571 189.479H188.526C198.521 207.357 215.463 216.823 238.683 216.823ZM224.803 140.579C224.803 122.508 225.845 111.087 228.739 104.592H182.981C179.688 114.778 178.028 126.83 178.028 140.579C178.028 148.785 178.62 156.36 179.816 163.331H225.742C225.086 157.325 224.803 149.813 224.803 140.579Z" fill="#2D1EF4"/>
<path d="M373.474 189.479V215.537H418.551V189.479H373.474ZM418.551 151.241V122.405H373.474V151.241H358.951L378.389 104.579H331.177L309.604 154.457V163.318H435.647V151.254H418.563L418.551 151.241ZM394.623 65.5691H348.055L337.184 90.6881H384.165L394.636 65.5691H394.623Z" fill="#2D1EF4"/>
<path d="M110.581 90.7009L104.805 104.579H57.5933L63.6009 90.7009H110.581Z" fill="#2D1EF4"/>
<path d="M284.171 104.579H238.503C236.367 99.7041 233.203 97.6334 228.713 97.6334C224.223 97.6334 220.917 99.7041 218.756 104.579H172.998C174.619 99.4726 176.677 94.8424 179.109 90.7009H278.034C280.492 94.8424 282.524 99.4855 284.171 104.579Z" fill="#2D1EF4"/>
<path d="M374.195 90.7009L368.419 104.579H321.207L327.215 90.7009H374.195Z" fill="#2D1EF4"/>
<path d="M185.399 163.318V186.482H168.29V189.479H123.214V186.482H59.3428V163.318H185.399Z" fill="#2D1EF4"/>
<path d="M310.697 163.318C308.986 173.402 306.04 182.161 301.911 189.479H201.865C197.762 182.148 194.842 173.402 193.144 163.318H239.069C240.651 177.762 244.472 183.498 252.01 183.498C259.549 183.498 263.164 177.749 264.746 163.318H310.671H310.697Z" fill="#2D1EF4"/>
<path d="M449 163.318V186.482H431.904V189.479H386.827V186.482H322.957V163.318H449Z" fill="#2D1EF4"/>
<path d="M74.4842 121.839H49.9136V127.576H74.4842V121.839Z" fill="#2D1EF4"/>
<path d="M267.19 123.447H242.62V135.485H267.19V123.447Z" fill="#2D1EF4"/>
<path d="M424.211 131.987H399.64V144.026H424.211V131.987Z" fill="#2D1EF4"/>
</g>
<g opacity="0.22">
<path d="M99.4793 189.479V215.537H144.556V189.479H99.4793ZM144.556 151.241V122.405H99.4793V151.241H84.9556L104.393 104.579H57.1817L35.6084 154.457V163.318H161.665V151.254H144.556V151.241ZM120.628 65.5691H74.0596L63.1893 90.6881H110.169L120.641 65.5691H120.628Z" fill="#2D1EF4"/>
<path d="M228.302 64.2958C205.506 64.2958 188.744 73.4405 178.697 90.7009H277.623C267.589 73.4405 250.853 64.2958 228.302 64.2958ZM283.759 104.579H238.091C240.934 111.074 241.976 122.495 241.976 140.566C241.976 149.788 241.693 157.312 241.037 163.318H286.963C288.159 156.36 288.751 148.772 288.751 140.566C288.751 126.817 287.066 114.765 283.747 104.579H283.759ZM228.302 216.823C251.264 216.823 268.181 207.357 278.189 189.479H178.144C188.14 207.357 205.082 216.823 228.302 216.823ZM214.421 140.579C214.421 122.508 215.463 111.087 218.358 104.592H172.6C169.306 114.778 167.647 126.83 167.647 140.579C167.647 148.785 168.239 156.36 169.435 163.331H215.36C214.704 157.325 214.421 149.813 214.421 140.579Z" fill="#2D1EF4"/>
<path d="M363.093 189.479V215.537H408.169V189.479H363.093ZM408.169 151.241V122.405H363.093V151.241H348.569L368.007 104.579H320.795L299.222 154.457V163.318H425.266V151.254H408.182L408.169 151.241ZM384.242 65.5691H337.673L326.803 90.6881H373.783L384.255 65.5691H384.242Z" fill="#2D1EF4"/>
<path d="M100.187 90.7009L94.4236 104.579H47.2119L53.2195 90.7009H100.187Z" fill="#2D1EF4"/>
<path d="M273.789 104.579H228.121C225.986 99.7041 222.821 97.6334 218.332 97.6334C213.842 97.6334 210.536 99.7041 208.375 104.579H162.617C164.238 99.4726 166.296 94.8424 168.727 90.7009H267.653C270.11 94.8424 272.143 99.4855 273.789 104.579Z" fill="#2D1EF4"/>
<path d="M363.813 90.7009L358.037 104.579H310.826L316.833 90.7009H363.813Z" fill="#2D1EF4"/>
<path d="M175.018 163.318V186.482H157.909V189.479H112.832V186.482H48.9614V163.318H175.018Z" fill="#2D1EF4"/>
<path d="M300.315 163.318C298.605 173.402 295.659 182.161 291.529 189.479H191.484C187.38 182.148 184.46 173.402 182.762 163.318H228.687C230.27 177.762 234.09 183.498 241.629 183.498C249.167 183.498 252.782 177.749 254.364 163.318H300.29H300.315Z" fill="#2D1EF4"/>
<path d="M438.619 163.318V186.482H421.522V189.479H376.446V186.482H312.575V163.318H438.619Z" fill="#2D1EF4"/>
<path d="M64.1029 121.839H39.5322V127.576H64.1029V121.839Z" fill="#2D1EF4"/>
<path d="M256.809 123.447H232.238V135.485H256.809V123.447Z" fill="#2D1EF4"/>
<path d="M413.829 131.987H389.259V144.026H413.829V131.987Z" fill="#2D1EF4"/>
</g>
<g opacity="0.55">
<path d="M83.5276 189.479V215.537H128.604V189.479H83.5276ZM128.604 151.241V122.405H83.5276V151.241H69.0039L88.4417 104.579H41.23L19.6567 154.457V163.318H145.713V151.254H128.604V151.241ZM104.676 65.5691H58.1079L47.2376 90.6881H94.2178L104.689 65.5691H104.676Z" fill="#FF00FF"/>
<path d="M212.35 64.2958C189.555 64.2958 172.793 73.4405 162.746 90.7009H261.672C251.637 73.4405 234.901 64.2958 212.35 64.2958ZM267.808 104.579H222.14C224.983 111.074 226.025 122.495 226.025 140.566C226.025 149.788 225.742 157.312 225.086 163.318H271.011C272.207 156.36 272.799 148.772 272.799 140.566C272.799 126.817 271.114 114.765 267.795 104.579H267.808ZM212.35 216.823C235.313 216.823 252.229 207.357 262.238 189.479H162.193C172.188 207.357 189.13 216.823 212.35 216.823ZM198.47 140.579C198.47 122.508 199.512 111.087 202.406 104.592H156.648C153.355 114.778 151.695 126.83 151.695 140.579C151.695 148.785 152.287 156.36 153.483 163.331H199.409C198.753 157.325 198.47 149.813 198.47 140.579Z" fill="#FF00FF"/>
<path d="M347.141 189.479V215.537H392.218V189.479H347.141ZM392.218 151.241V122.405H347.141V151.241H332.618L352.056 104.579H304.844L283.271 154.457V163.318H409.314V151.254H392.23L392.218 151.241ZM368.29 65.5691H321.722L310.851 90.6881H357.832L368.303 65.5691H368.29Z" fill="#FF00FF"/>
<path d="M84.248 90.7009L78.472 104.579H31.2603L37.2678 90.7009H84.248Z" fill="#FF00FF"/>
<path d="M257.838 104.579H212.17C210.034 99.7041 206.87 97.6334 202.38 97.6334C197.89 97.6334 194.584 99.7041 192.423 104.579H146.665C148.286 99.4726 150.344 94.8424 152.776 90.7009H251.701C254.158 94.8424 256.191 99.4855 257.838 104.579Z" fill="#FF00FF"/>
<path d="M347.862 90.7009L342.086 104.579H294.874L300.882 90.7009H347.862Z" fill="#FF00FF"/>
<path d="M159.066 163.318V186.482H141.957V189.479H96.8806V186.482H33.0098V163.318H159.066Z" fill="#FF00FF"/>
<path d="M284.364 163.318C282.653 173.402 279.707 182.161 275.578 189.479H175.532C171.429 182.148 168.509 173.402 166.811 163.318H212.736C214.318 177.762 218.139 183.498 225.677 183.498C233.216 183.498 236.831 177.749 238.413 163.318H284.338H284.364Z" fill="#FF00FF"/>
<path d="M422.667 163.318V186.482H405.571V189.479H360.494V186.482H296.624V163.318H422.667Z" fill="#FF00FF"/>
<path d="M48.1512 121.839H23.5806V127.576H48.1512V121.839Z" fill="#FF00FF"/>
<path d="M240.857 123.447H216.287V135.485H240.857V123.447Z" fill="#FF00FF"/>
<path d="M397.878 131.987H373.307V144.026H397.878V131.987Z" fill="#FF00FF"/>
</g>
<g opacity="0.61">
<path d="M93.5486 189.479V215.537H138.625V189.479H93.5486ZM138.625 151.241V122.405H93.5486V151.241H79.0249L98.4627 104.579H51.251L29.6777 154.457V163.318H155.734V151.254H138.625V151.241ZM114.697 65.5691H68.1289L57.2586 90.6881H104.239L114.71 65.5691H114.697Z" fill="#2D1EF4"/>
<path d="M222.358 64.2958C199.563 64.2958 182.8 73.4405 172.753 90.7009H271.679C261.645 73.4405 244.909 64.2958 222.358 64.2958ZM277.816 104.579H232.148C234.991 111.074 236.033 122.495 236.033 140.566C236.033 149.788 235.75 157.312 235.094 163.318H281.019C282.215 156.36 282.807 148.772 282.807 140.566C282.807 126.817 281.122 114.765 277.803 104.579H277.816ZM222.358 216.823C245.321 216.823 262.237 207.357 272.245 189.479H172.2C182.196 207.357 199.138 216.823 222.358 216.823ZM208.477 140.579C208.477 122.508 209.519 111.087 212.414 104.592H166.656C163.363 114.778 161.703 126.83 161.703 140.579C161.703 148.785 162.295 156.36 163.491 163.331H209.417C208.76 157.325 208.477 149.813 208.477 140.579Z" fill="#2D1EF4"/>
<path d="M357.162 189.479V215.537H402.239V189.479H357.162ZM402.239 151.241V122.405H357.162V151.241H342.639L362.076 104.579H314.865L293.292 154.457V163.318H419.335V151.254H402.239V151.241ZM378.311 65.5691H331.743L320.872 90.6881H367.853L378.324 65.5691H378.311Z" fill="#2D1EF4"/>
<path d="M94.2561 90.7009L88.493 104.579H41.2812L47.276 90.7009H94.2561Z" fill="#2D1EF4"/>
<path d="M267.846 104.579H222.178C220.043 99.7041 216.878 97.6334 212.388 97.6334C207.899 97.6334 204.593 99.7041 202.431 104.579H156.673C158.294 99.4726 160.353 94.8424 162.784 90.7009H261.71C264.167 94.8424 266.199 99.4855 267.846 104.579Z" fill="#2D1EF4"/>
<path d="M357.87 90.7009L352.107 104.579H304.895L310.903 90.7009H357.87Z" fill="#2D1EF4"/>
<path d="M169.087 163.318V186.482H151.978V189.479H106.902V186.482H43.0181V163.318H169.087Z" fill="#2D1EF4"/>
<path d="M294.372 163.318C292.661 173.402 289.715 182.161 285.586 189.479H185.541C181.437 182.148 178.517 173.402 176.819 163.318H222.744C224.326 177.762 228.147 183.498 235.686 183.498C243.224 183.498 246.839 177.749 248.421 163.318H294.346H294.372Z" fill="#2D1EF4"/>
<path d="M432.675 163.318V186.482H415.592V189.479H370.515V186.482H306.645V163.318H432.675Z" fill="#2D1EF4"/>
<path d="M58.1722 121.839H33.6016V127.576H58.1722V121.839Z" fill="#2D1EF4"/>
<path d="M250.878 123.447H226.308V135.485H250.878V123.447Z" fill="#2D1EF4"/>
<path d="M407.899 131.987H383.328V144.026H407.899V131.987Z" fill="#2D1EF4"/>
</g>
<path d="M89.4705 189.479V215.537H134.547V189.479H89.4705ZM134.547 151.241V122.405H89.4705V151.241H74.9468L94.3846 104.579H47.1729L25.5996 154.457V163.318H151.656V151.254H134.547V151.241ZM110.619 65.5691H64.0379L53.1676 90.6881H100.148L110.619 65.5691Z" fill="white"/>
<path d="M218.28 64.2958C195.484 64.2958 178.722 73.4405 168.675 90.7009H267.601C257.567 73.4405 240.831 64.2958 218.28 64.2958ZM273.737 104.579H228.069C230.912 111.074 231.954 122.495 231.954 140.566C231.954 149.788 231.671 157.312 231.015 163.318H276.941C278.137 156.36 278.729 148.772 278.729 140.566C278.729 126.817 277.044 114.765 273.725 104.579H273.737ZM218.28 216.823C241.242 216.823 258.159 207.357 268.167 189.479H168.122C178.118 207.357 195.06 216.823 218.28 216.823ZM204.399 140.579C204.399 122.508 205.441 111.087 208.336 104.592H162.578C159.284 114.778 157.625 126.83 157.625 140.579C157.625 148.785 158.217 156.36 159.413 163.331H205.338C204.682 157.325 204.399 149.813 204.399 140.579Z" fill="white"/>
<path d="M353.084 189.479V215.537H398.16V189.479H353.084ZM398.16 151.241V122.405H353.084V151.241H338.561L357.998 104.579H310.787L289.213 154.457V163.318H415.257V151.254H398.16V151.241ZM374.233 65.5691H327.665L316.794 90.6881H363.774L374.246 65.5691H374.233Z" fill="white"/>
<path d="M90.178 90.7009L84.4148 104.579H37.2031L43.1979 90.7009H90.178Z" fill="white"/>
<path d="M263.768 104.579H218.1C215.964 99.7041 212.8 97.6334 208.31 97.6334C203.821 97.6334 200.514 99.7041 198.353 104.579H152.595C154.216 99.4726 156.274 94.8424 158.706 90.7009H257.632C260.089 94.8424 262.121 99.4855 263.768 104.579Z" fill="white"/>
<path d="M353.792 90.7009L348.029 104.579H300.817L306.812 90.7009H353.792Z" fill="white"/>
<path d="M165.009 163.318V186.482H147.887V189.479H102.824V186.482H38.9399V163.318H165.009Z" fill="white"/>
<path d="M290.294 163.318C288.583 173.402 285.637 182.161 281.508 189.479H181.463C177.359 182.148 174.439 173.402 172.741 163.318H218.666C220.248 177.762 224.069 183.498 231.607 183.498C239.146 183.498 242.761 177.749 244.343 163.318H290.268H290.294Z" fill="white"/>
<path d="M428.597 163.318V186.482H411.514V189.479H366.437V186.482H302.554V163.318H428.597Z" fill="white"/>
<path d="M54.0809 121.839H29.5103V127.576H54.0809V121.839Z" fill="white"/>
<path d="M246.8 123.447H222.229V135.485H246.8V123.447Z" fill="white"/>
<path d="M403.808 131.987H379.237V144.026H403.808V131.987Z" fill="white"/>
<path opacity="0.55" d="M81.4437 68.2314H22.8472V77.8777H81.4437V68.2314Z" fill="#FF00FF"/>
<path opacity="0.43" d="M126.687 88.0128H84.9038V92.2186H126.687V88.0128Z" fill="#FF00FF"/>
<path opacity="0.43" d="M301.512 55.1254H241.423V59.3312H301.512V55.1254Z" fill="#FF00FF"/>
<path opacity="0.43" d="M292.352 111.897H265.222V120.489H292.352V111.897Z" fill="#FF00FF"/>
<path opacity="0.46" d="M174.169 119.678H147.038V128.27H174.169V119.678Z" fill="#2D1EF4"/>
<path opacity="0.61" d="M435.647 155.37H394.906V159.331H435.647V155.37Z" fill="#2D1EF4"/>
<path opacity="0.61" d="M55.4964 140.707H14.7554V147.305H55.4964V140.707Z" fill="#2D1EF4"/>
<path opacity="0.61" d="M276.542 197.44H235.801V204.039H276.542V197.44Z" fill="#2D1EF4"/>
<path opacity="0.61" d="M275.05 75.6527H234.309V79.6141H275.05V75.6527Z" fill="#2D1EF4"/>
<path opacity="0.61" d="M103.39 207.537H80.8901V211.498H103.39V207.537Z" fill="#2D1EF4"/>
<path opacity="0.61" d="M377.848 81.8263H355.349V85.7877H377.848V81.8263Z" fill="#2D1EF4"/>
<path opacity="0.61" d="M73.0432 107.743H27.5425V110.289H73.0432V107.743Z" fill="#2D1EF4"/>
<path opacity="0.61" d="M290.629 133.955H245.128V136.502H290.629V133.955Z" fill="#2D1EF4"/>
<path opacity="0.43" d="M409.558 199.781H382.428V208.373H409.558V199.781Z" fill="#FF00FF"/>
<path opacity="0.43" d="M143.256 197.646H116.125V202.341H143.256V197.646Z" fill="#FF00FF"/>
<path opacity="0.43" d="M338.342 73.0546H311.211V77.7491H338.342V73.0546Z" fill="#FF00FF"/>
<path opacity="0.17" d="M151.669 145.363H91.5806V149.569H151.669V145.363Z" fill="#FF00FF"/>
<path opacity="0.69" d="M50.531 175.524H25.5615V179.73H50.531V175.524Z" fill="#FF00FF"/>
<path opacity="0.69" d="M357.136 113.222H332.167V117.428H357.136V113.222Z" fill="#FF00FF"/>
<g opacity="0.34">
<path opacity="0.55" d="M72.5419 68.2314H13.9453V77.8777H72.5419V68.2314Z" fill="#FF00FF"/>
<path opacity="0.43" d="M117.785 88.0128H76.002V92.2186H117.785V88.0128Z" fill="#FF00FF"/>
<path opacity="0.43" d="M292.61 55.1254H232.521V59.3312H292.61V55.1254Z" fill="#FF00FF"/>
<path opacity="0.43" d="M283.45 111.897H256.32V120.489H283.45V111.897Z" fill="#FF00FF"/>
<path opacity="0.46" d="M165.267 119.678H138.136V128.27H165.267V119.678Z" fill="#2D1EF4"/>
<path opacity="0.61" d="M426.745 155.37H386.004V159.331H426.745V155.37Z" fill="#2D1EF4"/>
<path opacity="0.61" d="M46.5945 140.707H5.85352V147.305H46.5945V140.707Z" fill="#2D1EF4"/>
<path opacity="0.61" d="M267.64 197.44H226.899V204.039H267.64V197.44Z" fill="#2D1EF4"/>
<path opacity="0.61" d="M266.161 75.6527H225.42V79.6141H266.161V75.6527Z" fill="#2D1EF4"/>
<path opacity="0.61" d="M94.4878 207.537H71.9883V211.498H94.4878V207.537Z" fill="#2D1EF4"/>
<path opacity="0.61" d="M368.946 81.8263H346.447V85.7877H368.946V81.8263Z" fill="#2D1EF4"/>
<path opacity="0.61" d="M64.1414 107.743H18.6406V110.289H64.1414V107.743Z" fill="#2D1EF4"/>
<path opacity="0.61" d="M281.727 133.955H236.226V136.502H281.727V133.955Z" fill="#2D1EF4"/>
<path opacity="0.43" d="M400.657 199.781H373.526V208.373H400.657V199.781Z" fill="#FF00FF"/>
<path opacity="0.43" d="M134.354 197.646H107.224V202.341H134.354V197.646Z" fill="#FF00FF"/>
<path opacity="0.43" d="M329.44 73.0546H302.31V77.7491H329.44V73.0546Z" fill="#FF00FF"/>
<path opacity="0.17" d="M142.768 145.363H82.6787V149.569H142.768V145.363Z" fill="#FF00FF"/>
<path opacity="0.69" d="M41.6291 175.524H16.6597V179.73H41.6291V175.524Z" fill="#FF00FF"/>
<path opacity="0.69" d="M348.235 113.222H323.265V117.428H348.235V113.222Z" fill="#FF00FF"/>
</g>
<path style="mix-blend-mode:screen" d="M226.461 243.987C293.85 243.987 348.479 189.369 348.479 121.994C348.479 54.6184 293.85 0 226.461 0C159.073 0 104.444 54.6184 104.444 121.994C104.444 189.369 159.073 243.987 226.461 243.987Z" fill="url(#paint0_radial_156_167)"/>
<path style="mix-blend-mode:screen" d="M342.175 196.54C378.843 196.54 408.568 166.821 408.568 130.161C408.568 93.5004 378.843 63.7814 342.175 63.7814C305.508 63.7814 275.783 93.5004 275.783 130.161C275.783 166.821 305.508 196.54 342.175 196.54Z" fill="url(#paint1_radial_156_167)"/>
<path style="mix-blend-mode:screen" d="M85.0324 210.379C121.7 210.379 151.425 180.66 151.425 144C151.425 107.34 121.7 77.6206 85.0324 77.6206C48.365 77.6206 18.6401 107.34 18.6401 144C18.6401 180.66 48.365 210.379 85.0324 210.379Z" fill="url(#paint2_radial_156_167)"/>
</g>
<defs>
<radialGradient id="paint0_radial_156_167" cx="0" cy="0" r="1" gradientUnits="userSpaceOnUse" gradientTransform="translate(226.462 121.994) scale(122.017 121.994)">
<stop stop-color="#FF00FF"/>
<stop offset="0.11" stop-color="#CD00CD" stop-opacity="0.99"/>
<stop offset="0.24" stop-color="#970097" stop-opacity="0.98"/>
<stop offset="0.37" stop-color="#690069" stop-opacity="0.97"/>
<stop offset="0.5" stop-color="#430043" stop-opacity="0.96"/>
<stop offset="0.63" stop-color="#250025" stop-opacity="0.96"/>
<stop offset="0.76" stop-color="#100010" stop-opacity="0.95"/>
<stop offset="0.88" stop-color="#040004" stop-opacity="0.95"/>
<stop offset="1" stop-opacity="0.95"/>
</radialGradient>
<radialGradient id="paint1_radial_156_167" cx="0" cy="0" r="1" gradientUnits="userSpaceOnUse" gradientTransform="translate(342.175 130.161) scale(66.3923 66.3794)">
<stop stop-color="#FF00FF"/>
<stop offset="0.11" stop-color="#CD00CD" stop-opacity="0.99"/>
<stop offset="0.24" stop-color="#970097" stop-opacity="0.98"/>
<stop offset="0.37" stop-color="#690069" stop-opacity="0.97"/>
<stop offset="0.5" stop-color="#430043" stop-opacity="0.96"/>
<stop offset="0.63" stop-color="#250025" stop-opacity="0.96"/>
<stop offset="0.76" stop-color="#100010" stop-opacity="0.95"/>
<stop offset="0.88" stop-color="#040004" stop-opacity="0.95"/>
<stop offset="1" stop-opacity="0.95"/>
</radialGradient>
<radialGradient id="paint2_radial_156_167" cx="0" cy="0" r="1" gradientUnits="userSpaceOnUse" gradientTransform="translate(85.0324 144) scale(66.3923 66.3794)">
<stop stop-color="#FF00FF"/>
<stop offset="0.11" stop-color="#CD00CD" stop-opacity="0.99"/>
<stop offset="0.24" stop-color="#970097" stop-opacity="0.98"/>
<stop offset="0.37" stop-color="#690069" stop-opacity="0.97"/>
<stop offset="0.5" stop-color="#430043" stop-opacity="0.96"/>
<stop offset="0.63" stop-color="#250025" stop-opacity="0.96"/>
<stop offset="0.76" stop-color="#100010" stop-opacity="0.95"/>
<stop offset="0.88" stop-color="#040004" stop-opacity="0.95"/>
<stop offset="1" stop-opacity="0.95"/>
</radialGradient>
<clipPath id="clip0_156_167">
<rect width="449" height="244" fill="white"/>
</clipPath>
</defs>
</svg>
