<svg width="27" height="27" viewBox="0 0 27 27" fill="none" xmlns="http://www.w3.org/2000/svg">
<g id="&#208;&#160;&#208;&#176;&#208;&#186;&#208;&#181;&#209;&#130;&#208;&#176;" clip-path="url(#clip0_121_1597)">
<g id="Layer 1">
<g id="Group">
<path id="Vector" d="M15.3293 10.4402H11.6704C11.4887 10.4402 11.3318 10.5894 11.3318 10.7802C11.3318 10.9709 11.4805 11.1202 11.6704 11.1202H15.3293C15.511 11.1202 15.668 10.9709 15.668 10.7802C15.668 10.5894 15.5193 10.4402 15.3293 10.4402Z" fill="white"/>
<path id="Vector_2" d="M14.9412 12.8035H12.0669C11.8852 12.8035 11.7283 12.9527 11.7283 13.1435C11.7283 13.3342 11.8769 13.4752 12.0669 13.4752H14.9412C15.1229 13.4752 15.2798 13.3259 15.2798 13.1435C15.2798 12.961 15.1311 12.8035 14.9412 12.8035Z" fill="white"/>
<path id="Vector_3" d="M4.5013 22.4807C4.5426 22.5802 4.63345 22.6632 4.74082 22.688C4.7656 22.688 4.79038 22.688 4.81516 22.688C4.89775 22.688 4.98035 22.6549 5.04642 22.5968C5.3355 22.3232 5.71543 22.1739 6.11188 22.1739C6.3927 22.1739 6.67352 22.2485 6.91305 22.3978C6.9626 22.431 7.02868 22.4475 7.08649 22.4475C7.11953 22.4475 7.16083 22.4475 7.19387 22.431C7.28472 22.3978 7.35905 22.3232 7.40035 22.2319C7.68117 21.4773 8.38322 20.9881 9.17612 20.9881C9.56432 20.9881 9.94425 21.1042 10.2581 21.3281C10.3159 21.3695 10.382 21.3861 10.4481 21.3861C10.5554 21.3861 10.6628 21.3281 10.7206 21.2369C10.7702 21.1622 10.7867 21.071 10.7784 20.9881C10.7619 20.8969 10.7124 20.8222 10.638 20.7725C10.2086 20.474 9.69647 20.3164 9.17612 20.3164C8.30063 20.3164 7.46643 20.7808 7.0039 21.5271L6.92957 21.6432L6.79741 21.6017C6.57441 21.5271 6.34315 21.4939 6.11188 21.4939C5.75673 21.4939 5.40157 21.5851 5.08772 21.751L4.94731 21.8256L4.85645 21.6929C4.31133 20.8554 3.39454 20.3579 2.39515 20.3579C1.49488 20.3579 0.652416 20.7642 0.0907759 21.469C0.03296 21.5354 0.00818181 21.6266 0.0164412 21.7178C0.0247006 21.809 0.0659977 21.8837 0.140332 21.9417C0.198148 21.9915 0.272483 22.0163 0.346817 22.0163C0.44593 22.0163 0.545043 21.9749 0.611119 21.892C1.04887 21.3447 1.70136 21.0296 2.39515 21.0296C3.33672 21.0296 4.16266 21.6017 4.51782 22.4807H4.5013Z" fill="white"/>
<path id="Vector_4" d="M10.5968 24.6284C9.72128 24.6284 8.88708 25.0928 8.42455 25.8391L8.35022 25.9552L8.21807 25.9137C7.99506 25.8391 7.77206 25.8059 7.53254 25.8059C7.17738 25.8059 6.82223 25.8972 6.50837 26.0547L6.36796 26.1293L6.27711 25.9967C5.73199 25.1591 4.80693 24.6616 3.8158 24.6616C2.91553 24.6616 2.07307 25.0679 1.51143 25.7728C1.45361 25.8391 1.42884 25.9303 1.4371 26.0215C1.44535 26.1128 1.48665 26.1874 1.56099 26.2454C1.6188 26.2952 1.69314 26.3201 1.76747 26.3201C1.86658 26.3201 1.9657 26.2703 2.03177 26.1957C2.46952 25.6484 3.12201 25.3333 3.8158 25.3333C4.75738 25.3333 5.58332 25.9054 5.93847 26.7844C5.97977 26.8839 6.07062 26.9669 6.178 26.9917C6.20277 26.9917 6.22755 26.9917 6.25233 26.9917C6.33492 26.9917 6.41752 26.9586 6.48359 26.9005C6.77267 26.6269 7.15261 26.4776 7.54906 26.4776C7.82988 26.4776 8.1107 26.5523 8.35848 26.7015C8.40803 26.7347 8.47411 26.7513 8.53193 26.7513C8.56496 26.7513 8.60626 26.7513 8.6393 26.7347C8.73015 26.7015 8.80449 26.6269 8.84578 26.5357C9.1266 25.7811 9.82865 25.3001 10.6216 25.3001C11.0097 25.3001 11.3897 25.4162 11.7035 25.6401C11.7614 25.6815 11.8274 25.6981 11.8935 25.6981C12.0009 25.6981 12.1082 25.6401 12.1661 25.5572C12.2156 25.4825 12.2321 25.3913 12.2239 25.3084C12.2074 25.2172 12.1578 25.1425 12.0835 25.0928C11.654 24.7943 11.1419 24.6367 10.6216 24.6367L10.5968 24.6284Z" fill="white"/>
<path id="Vector_5" d="M17.4356 14.3956L17.5182 14.1883L17.6999 14.3127C18.6498 14.976 20.2025 16.4853 19.9465 19.1305C19.9382 19.2217 19.963 19.3047 20.0208 19.3793C20.0786 19.4456 20.1612 19.4954 20.2521 19.5037H20.2851C20.4586 19.5037 20.599 19.371 20.6155 19.2052C20.9211 15.996 18.7819 14.238 17.8486 13.6244L17.733 13.5498L17.7743 13.4254C18.1294 12.2479 18.3111 11.0372 18.3111 9.80989V9.2543C18.3111 5.64711 16.5849 2.21407 13.6941 0.0663391C13.6363 0.0248771 13.5702 0 13.4959 0C13.4216 0 13.3555 0.0248771 13.2977 0.0663391C10.4069 2.21407 8.68066 5.64711 8.68066 9.2543V9.80989C8.68066 11.0289 8.86237 12.2479 9.21753 13.4254L9.25882 13.5498L9.14319 13.6244C8.20988 14.238 6.07069 15.996 6.37629 19.2052C6.39281 19.3793 6.53322 19.5037 6.7397 19.5037C6.83056 19.5037 6.90489 19.4539 6.96271 19.3793C7.02052 19.313 7.0453 19.2217 7.03704 19.1305C6.781 16.4935 8.33377 14.9843 9.2836 14.3127L9.46531 14.1883L9.5479 14.3956C10.3325 16.3609 11.621 18.094 13.2729 19.4208C13.3307 19.4705 13.405 19.4954 13.4794 19.4954C13.5537 19.4954 13.628 19.4705 13.6859 19.4208C15.3377 18.094 16.6262 16.3526 17.4109 14.3956H17.4356ZM13.6198 18.633L13.5042 18.7325L13.3885 18.633C11.8192 17.2813 10.6464 15.5316 9.97739 13.558V13.5249C9.56442 12.3308 9.3662 11.0786 9.3662 9.8016V9.24601C9.3662 6.00368 10.8777 2.86087 13.405 0.837531L13.5124 0.746314L13.6198 0.837531C16.1472 2.86087 17.6586 6.00368 17.6586 9.24601V9.8016C17.6586 11.0537 17.4604 12.2893 17.064 13.4917L17.0557 13.5249C16.3949 15.4985 15.2139 17.2564 13.628 18.6247L13.6198 18.633Z" fill="white"/>
<path id="Vector_6" d="M24.6213 20.3579C23.6219 20.3579 22.6969 20.8554 22.16 21.6929L22.0691 21.8256L21.9287 21.751C21.6149 21.5851 21.2597 21.5022 20.9046 21.5022C20.6733 21.5022 20.442 21.5437 20.219 21.61L20.0869 21.6515L20.0126 21.5354C19.5418 20.7891 18.7076 20.3247 17.8403 20.3247C17.3117 20.3247 16.8079 20.4823 16.3784 20.7808C16.3041 20.8305 16.2545 20.9052 16.238 20.9964C16.2215 21.0876 16.238 21.1705 16.2958 21.2452C16.3619 21.3364 16.461 21.3861 16.5684 21.3861C16.6345 21.3861 16.7005 21.3613 16.7583 21.3281C17.0805 21.1042 17.4521 20.9881 17.8403 20.9881C18.6332 20.9881 19.3353 21.4773 19.6161 22.232C19.6491 22.3232 19.7235 22.3978 19.8226 22.431C19.8556 22.4393 19.8969 22.4476 19.93 22.4476C19.9878 22.4476 20.0539 22.431 20.1034 22.3978C20.3512 22.2485 20.6238 22.1739 20.9128 22.1739C21.3093 22.1739 21.6892 22.3232 21.9783 22.5968C22.0444 22.6549 22.1187 22.688 22.2096 22.688C22.2343 22.688 22.2591 22.688 22.2839 22.688C22.3913 22.6632 22.4821 22.5885 22.5234 22.4807C22.8703 21.6017 23.7045 21.0296 24.6461 21.0296C25.3399 21.0296 25.9924 21.3447 26.4301 21.892C26.4962 21.9749 26.587 22.0164 26.6944 22.0164C26.7687 22.0164 26.8431 21.9915 26.9009 21.9417C26.967 21.8837 27.0165 21.809 27.0248 21.7178C27.0331 21.6266 27.0083 21.5437 26.9505 21.4691C26.3888 20.7642 25.5464 20.3579 24.6461 20.3579H24.6213Z" fill="white"/>
<path id="Vector_7" d="M23.1923 24.6699C22.193 24.6699 21.2762 25.1674 20.731 26.005L20.6402 26.1376L20.4998 26.063C20.1859 25.8972 19.8308 25.8059 19.4756 25.8059C19.2444 25.8059 19.0131 25.8474 18.7901 25.9137L18.6579 25.9552L18.5836 25.8391C18.1128 25.0928 17.2786 24.6284 16.4114 24.6284C15.8828 24.6284 15.3789 24.786 14.9495 25.0845C14.8751 25.1343 14.8256 25.2089 14.809 25.3001C14.7925 25.3913 14.809 25.4742 14.8669 25.5489C14.9329 25.6401 15.0321 25.6898 15.1394 25.6898C15.2055 25.6898 15.2716 25.6733 15.3294 25.6318C15.6515 25.4079 16.0232 25.2918 16.4114 25.2918C17.2043 25.2918 17.9063 25.7811 18.1871 26.5274C18.2202 26.6186 18.2945 26.6932 18.3936 26.7264C18.4267 26.7347 18.468 26.743 18.501 26.743C18.5588 26.743 18.6249 26.7264 18.6745 26.6932C18.9222 26.544 19.1948 26.4693 19.4839 26.4693C19.8803 26.4693 20.252 26.6186 20.5493 26.8922C20.6154 26.9503 20.6897 26.9835 20.7806 26.9835C20.8054 26.9835 20.8302 26.9835 20.8549 26.9835C20.9623 26.9586 21.0532 26.8839 21.0945 26.7761C21.4414 25.8972 22.2756 25.325 23.2171 25.325C23.9109 25.325 24.5634 25.6401 25.0012 26.1874C25.0672 26.2703 25.1581 26.3118 25.2655 26.3118C25.3398 26.3118 25.4141 26.2869 25.4719 26.2371C25.538 26.1791 25.5876 26.1045 25.5958 26.0132C25.6041 25.922 25.5793 25.8391 25.5215 25.7645C24.9599 25.0596 24.1174 24.6533 23.2171 24.6533L23.1923 24.6699Z" fill="white"/>
<path id="Vector_8" d="M13.5041 4.40332C12.3147 4.40332 11.3401 5.37353 11.3401 6.57592C11.3401 7.77832 12.3147 8.74853 13.5041 8.74853C14.6934 8.74853 15.668 7.77003 15.668 6.57592C15.668 5.38182 14.6934 4.40332 13.5041 4.40332ZM13.5041 8.07685C12.6781 8.07685 12.0091 7.40516 12.0091 6.57592C12.0091 5.74669 12.6781 5.075 13.5041 5.075C14.33 5.075 14.999 5.74669 14.999 6.57592C14.999 7.40516 14.33 8.07685 13.5041 8.07685Z" fill="white"/>
</g>
</g>
</g>
<defs>
<clipPath id="clip0_121_1597">
<rect width="27" height="27" fill="white"/>
</clipPath>
</defs>
</svg>
