<svg width="24" height="25" viewBox="0 0 24 25" fill="none" xmlns="http://www.w3.org/2000/svg">
<g id="&#208;&#158;&#208;&#191;&#209;&#139;&#209;&#130;" clip-path="url(#clip0_121_1608)">
<g id="Layer 1">
<g id="Group">
<path id="Vector" d="M16.0126 3.76397C16.0958 3.76397 16.1713 3.7353 16.2318 3.67794L18.3552 1.58445C18.4157 1.52709 18.4459 1.4554 18.4383 1.37653C18.4383 1.29767 18.4005 1.22597 18.3476 1.17579C18.2872 1.1256 18.2116 1.09692 18.1361 1.09692C18.0529 1.09692 17.9774 1.1256 17.9169 1.18296L15.7935 3.27645C15.733 3.3338 15.7028 3.4055 15.7104 3.48436C15.7104 3.56323 15.7482 3.63492 15.801 3.68511C15.8615 3.73529 15.9371 3.76397 16.0126 3.76397Z" fill="white"/>
<path id="Vector_2" d="M12 3.76398C12.1663 3.76398 12.3098 3.63493 12.3098 3.4772V0.293949C12.3098 0.13622 12.1738 0 12 0C11.8262 0 11.6902 0.129051 11.6902 0.293949V3.47003C11.6902 3.62776 11.8262 3.75681 12 3.75681V3.76398Z" fill="white"/>
<path id="Vector_3" d="M7.76832 3.67086C7.82877 3.72821 7.90434 3.75689 7.98746 3.75689C8.07058 3.75689 8.14615 3.72821 8.19905 3.67803C8.2595 3.62067 8.28973 3.54898 8.28973 3.47728C8.28973 3.39842 8.2595 3.32672 8.2066 3.26937L6.08318 1.17588C6.02272 1.11852 5.94716 1.08984 5.86403 1.08984C5.78091 1.08984 5.70534 1.11852 5.65245 1.16871C5.59199 1.21889 5.56177 1.29776 5.56177 1.36945C5.56177 1.44832 5.59199 1.52001 5.64489 1.57737L7.76832 3.67086Z" fill="white"/>
<path id="Vector_4" d="M24 11.9803V11.9301L20.7431 6.34509C20.4408 5.82889 19.8741 5.51343 19.2544 5.51343H4.74559C4.12594 5.51343 3.55919 5.82889 3.25693 6.34509L0.0453401 11.8656L0.02267 11.9158L0 11.9803C0 11.9803 0 12.009 0 12.0233V12.0663C0 12.0663 0.00755668 12.1022 0.02267 12.1524C0.0377834 12.1811 0.0528967 12.2026 0.0680101 12.2241L11.7431 24.8854L11.7733 24.9069C11.7733 24.9069 11.8035 24.9356 11.8035 24.9427L11.8489 24.9642L11.8791 24.9858C11.9169 25.0073 11.9622 25.0144 11.9924 25.0144C12.0227 25.0144 12.0605 25.0144 12.1209 24.9858H12.136C12.136 24.9858 12.1965 24.9427 12.2191 24.9141L23.9169 12.2312C23.9169 12.2312 23.9547 12.1882 23.9698 12.1309C23.9698 12.1094 23.9849 12.095 23.9849 12.0807V12.0377C23.9849 12.0377 23.9849 12.009 23.9849 11.9946L24 11.9803ZM0.974811 12.3173H7.00504C7.48111 12.3173 7.91184 12.6184 8.04786 13.0557L11.3123 23.5232L0.974811 12.3173ZM12.136 24.1182L8.86398 13.6365C8.76574 13.321 8.8262 12.9912 9.03778 12.7259C9.24181 12.4607 9.55919 12.3101 9.9068 12.3101H14.0932C14.4408 12.3101 14.7582 12.4607 14.9622 12.7259C15.1662 12.9912 15.2343 13.321 15.136 13.6365L12.9144 20.7558C12.869 20.9063 12.9597 21.0712 13.1184 21.1142C13.1486 21.1214 13.1788 21.1286 13.2015 21.1286C13.3375 21.1286 13.4584 21.0425 13.4962 20.9207L15.9521 13.0486C16.0882 12.6112 16.5189 12.3101 16.995 12.3101H23.0252L12.136 24.1111V24.1182ZM16.995 11.7365C16.4811 11.7365 16.005 11.9588 15.6725 12.3459L15.5441 12.4965L15.4156 12.3459C15.0907 11.9588 14.6071 11.7365 14.0856 11.7365H9.89924C9.37783 11.7365 8.89421 11.9588 8.56927 12.3459L8.44081 12.4965L8.31234 12.3459C7.97985 11.9588 7.50378 11.7365 6.98992 11.7365H0.823678L3.80101 6.6247C3.98992 6.2949 4.35264 6.09416 4.75315 6.09416H9.09068L7.80605 10.1951C7.76071 10.3457 7.85139 10.5106 8.01008 10.5536C8.0403 10.5607 8.07053 10.5679 8.10076 10.5679C8.23678 10.5679 8.35768 10.4819 8.39547 10.36L9.733 6.09416H14.2972L15.6348 10.36C15.6725 10.4819 15.7935 10.5679 15.9295 10.5679C15.9597 10.5679 15.9899 10.5679 16.0202 10.5536C16.1788 10.5106 16.2771 10.3457 16.2242 10.1951L14.9395 6.09416H19.2771C19.67 6.09416 20.0327 6.2949 20.2292 6.6247L23.2065 11.7365H17.0252H16.995Z" fill="white"/>
</g>
</g>
</g>
<defs>
<clipPath id="clip0_121_1608">
<rect width="24" height="25" fill="white"/>
</clipPath>
</defs>
</svg>
