<svg width="27" height="23" viewBox="0 0 27 23" fill="none" xmlns="http://www.w3.org/2000/svg">
<g id="Layer 1">
<g id="Group">
<path id="Vector" d="M9.16122 4.38357L10.8702 5.63041C10.956 5.69315 10.9872 5.80293 10.956 5.89703L10.3005 7.92022C10.1835 8.28878 10.3005 8.67303 10.6205 8.90044C10.7765 9.01023 10.9482 9.07296 11.1355 9.07296C11.3228 9.07296 11.4945 9.01023 11.6505 8.90044L13.3595 7.6536C13.3985 7.62223 13.4531 7.60655 13.4999 7.60655C13.5468 7.60655 13.6014 7.62223 13.6404 7.6536L15.3494 8.90044C15.5054 9.01023 15.6771 9.07296 15.8644 9.07296C16.0517 9.07296 16.2234 9.01023 16.3794 8.90044C16.6916 8.67303 16.8164 8.28878 16.6994 7.92022L16.0439 5.89703C16.0127 5.79509 16.0439 5.68531 16.1297 5.63041C16.1297 5.63041 17.8153 4.39925 17.8387 4.38357C18.1508 4.15615 18.2757 3.77191 18.1586 3.40334C18.0416 3.03478 17.7138 2.79952 17.3315 2.79952H15.2167C15.1153 2.79952 15.0216 2.72895 14.9904 2.63484L14.3349 0.61166C14.2101 0.235254 13.8823 0 13.4999 0C13.1176 0 12.7898 0.235254 12.6728 0.603819L12.0173 2.627C11.9861 2.72895 11.8924 2.79168 11.791 2.79168H9.67625C9.29388 2.79168 8.96613 3.02693 8.84908 3.3955C8.73203 3.76406 8.84908 4.14831 9.16902 4.37572L9.16122 4.38357ZM9.44995 3.59939C9.48116 3.49744 9.567 3.43471 9.67625 3.43471H11.791C12.1734 3.43471 12.5011 3.19161 12.6182 2.83089L13.2736 0.807705C13.3049 0.705762 13.3907 0.643028 13.4999 0.643028C13.6092 0.643028 13.695 0.705762 13.7263 0.807705L14.3817 2.83089C14.4988 3.19161 14.8343 3.43471 15.2089 3.43471H17.3237C17.4329 3.43471 17.5187 3.49744 17.5499 3.59939C17.5812 3.70133 17.5499 3.80327 17.4641 3.86601L15.7552 5.11285C15.4508 5.34027 15.3182 5.73236 15.4352 6.09308L16.0907 8.11626C16.1375 8.2731 16.0361 8.35936 16.0049 8.38288C15.958 8.41425 15.9112 8.42994 15.8644 8.42994C15.8098 8.42994 15.763 8.41425 15.7239 8.38288L14.015 7.13604C13.8667 7.02625 13.6872 6.97136 13.4999 6.97136C13.3127 6.97136 13.141 7.02625 12.9849 7.13604L11.276 8.38288C11.2291 8.41425 11.1823 8.43778 11.1277 8.43778C11.0809 8.43778 11.0262 8.42209 10.9872 8.39073C10.9014 8.32799 10.8702 8.22605 10.9014 8.12411L11.5569 6.10092C11.6739 5.7402 11.5491 5.34811 11.2369 5.1207L9.52798 3.87385C9.44215 3.81112 9.41093 3.70917 9.44215 3.60723L9.44995 3.59939Z" fill="white"/>
<path id="Vector_2" d="M19.0638 5.95987H19.6881C20.0236 5.95987 20.3201 5.74815 20.4216 5.42663L21.0927 3.36424L21.7638 5.42663C21.8652 5.74815 22.1618 5.95987 22.4973 5.95987H24.6589L22.9109 7.23809C22.6378 7.43413 22.5285 7.78701 22.63 8.10853L23.3011 10.1709L21.5531 8.89271C21.4204 8.79861 21.2644 8.74371 21.1005 8.74371C20.9366 8.74371 20.7805 8.79861 20.6479 8.89271L18.8999 10.1709L19.571 8.10853C19.6725 7.78701 19.5632 7.44197 19.2901 7.23809L18.1976 6.43822C18.143 6.39902 18.0805 6.37549 18.0103 6.37549C17.9089 6.37549 17.8152 6.42254 17.7528 6.5088C17.706 6.57938 17.6826 6.65779 17.6982 6.74405C17.7138 6.83031 17.7528 6.90089 17.823 6.94794L19.0092 7.78701L18.4395 9.55926C18.3381 9.88077 18.4395 10.2258 18.7204 10.4297C18.8531 10.5316 19.0092 10.5787 19.173 10.5787C19.3369 10.5787 19.493 10.5238 19.6256 10.4297L21.0927 9.33185L22.5909 10.4297C22.7236 10.5316 22.8875 10.5787 23.0436 10.5787C23.1996 10.5787 23.3635 10.5238 23.4962 10.4297C23.7693 10.2258 23.8785 9.88862 23.7771 9.5671L23.1918 7.82622L24.6901 6.72837C24.9632 6.52448 25.0725 6.18729 24.971 5.85793C24.8696 5.52858 24.5808 5.32469 24.2375 5.32469L22.4115 5.34821L21.8418 3.57597C21.7404 3.24661 21.4516 3.04272 21.1083 3.04272C20.7649 3.04272 20.4762 3.25445 20.3748 3.57597L19.8285 5.33253H19.0794C18.9077 5.33253 18.7594 5.47368 18.7594 5.65404C18.7594 5.83441 18.8999 5.97556 19.0794 5.97556L19.0638 5.95987Z" fill="white"/>
<path id="Vector_3" d="M26.2977 15.6915H18.5488V13.3547C18.5488 12.9626 18.2367 12.6489 17.8465 12.6489H9.16127C8.7711 12.6489 8.45896 12.9626 8.45896 13.3547V15.6915H0.702312C0.312139 15.6915 0 16.0052 0 16.3973V22.6864C0 22.859 0.140462 23.0001 0.319942 23.0001H26.6879C26.8595 23.0001 27.0078 22.859 27.0078 22.6864V16.3973C27.0078 16.0052 26.6957 15.6915 26.3055 15.6915H26.2977ZM26.3679 22.3728H0.632081V16.3267H8.45116V20.2241C8.45116 20.3966 8.59162 20.5456 8.7711 20.5456C8.95058 20.5456 9.09104 20.4045 9.09104 20.2241V13.2841H17.9168V20.2241C17.9168 20.3966 18.0572 20.5456 18.2367 20.5456C18.4162 20.5456 18.5567 20.4045 18.5567 20.2241V16.3267H26.3757V22.3728H26.3679Z" fill="white"/>
<path id="Vector_4" d="M2.32544 6.72837L3.81591 7.78701L3.24625 9.55926C3.14481 9.88077 3.24625 10.2258 3.52718 10.4297C3.65984 10.5316 3.81591 10.5787 3.97978 10.5787C4.14365 10.5787 4.29972 10.5238 4.43238 10.4297L5.89943 9.33185L7.3977 10.4297C7.53036 10.5316 7.68643 10.5787 7.8503 10.5787C8.01417 10.5787 8.17024 10.5238 8.3029 10.4297C8.57602 10.2258 8.68527 9.88862 8.58383 9.5671L7.99857 7.82622L9.1925 6.95578C9.26273 6.90873 9.30955 6.83031 9.31735 6.7519C9.33296 6.66564 9.31735 6.58722 9.26273 6.51664C9.2003 6.43822 9.10666 6.38333 9.00521 6.38333C8.93498 6.38333 8.87256 6.40686 8.81793 6.44607L7.72544 7.24593C7.45232 7.44197 7.34307 7.79486 7.44452 8.11637L8.11562 10.1788L6.36764 8.90055C6.23498 8.80645 6.07891 8.75155 5.91504 8.75155C5.75117 8.75155 5.5951 8.80645 5.46244 8.90055L3.71446 10.1788L4.38556 8.11637C4.487 7.79486 4.37776 7.44982 4.10464 7.25377L2.35666 5.97556H4.51822C4.85377 5.97556 5.1503 5.76383 5.25174 5.44232L5.92284 3.37992L6.59394 5.44232C6.69539 5.76383 6.99192 5.97556 7.32747 5.97556H7.95175C8.12342 5.97556 8.27169 5.83441 8.27169 5.65404C8.27169 5.47368 8.13122 5.33253 7.95955 5.33253L7.24163 5.35606L6.66417 3.57597C6.56273 3.24661 6.274 3.04272 5.93065 3.04272C5.58729 3.04272 5.29857 3.25445 5.19712 3.57597L4.65088 5.33253H2.77805C2.43469 5.33253 2.14596 5.54426 2.04452 5.86577C1.94307 6.19513 2.04452 6.53233 2.32544 6.72837Z" fill="white"/>
</g>
</g>
</svg>
