<svg width="174" height="115" viewBox="0 0 174 115" fill="none" xmlns="http://www.w3.org/2000/svg">
<g id="logo HR Tech 1">
<path id="Vector" d="M14.2505 4.86223H9.57301V16.6667H8.65551V4.86223H3.97803V4.04446H14.2505V4.86223ZM28.471 4.04446V16.6667H27.5533V10.6222H19.4937V16.6667H18.5762V4.04446H19.4937V9.80446H27.5533V4.04446H28.471ZM42.6535 15.8489V16.6667H34.1441V4.04446H42.4916V4.86223H35.0616V9.82223H41.5561V10.6045H35.0616V15.8489H42.6535ZM54.4577 16.6667V4.04446H62.7692V4.86223H55.3752V9.87557H61.6538V10.6578H55.3752V16.6667H54.4577ZM72.6054 15.92C73.4689 15.92 74.1827 15.76 74.7463 15.44C75.322 15.12 75.7717 14.6993 76.0955 14.1778C76.4314 13.6563 76.6653 13.0637 76.7972 12.4C76.9411 11.7363 77.013 11.0667 77.013 10.3911V4.04446H77.9305V10.3911C77.9305 11.2326 77.8347 12.0385 77.6427 12.8089C77.4628 13.5793 77.1629 14.2608 76.7432 14.8533C76.3235 15.4341 75.7776 15.8963 75.1061 16.24C74.4345 16.5837 73.607 16.7556 72.6234 16.7556C71.6039 16.7556 70.7524 16.5778 70.0688 16.2222C69.3852 15.8548 68.8334 15.3748 68.4137 14.7822C68.0058 14.1778 67.7121 13.4963 67.5322 12.7378C67.3643 11.9793 67.2803 11.197 67.2803 10.3911V4.04446H68.1978V10.3911C68.1978 11.0904 68.2639 11.7719 68.3957 12.4356C68.5396 13.0993 68.7794 13.6919 69.1153 14.2133C69.463 14.723 69.919 15.1378 70.4826 15.4578C71.0462 15.7659 71.754 15.92 72.6054 15.92ZM92.3382 4.86223H87.6608V16.6667H86.7433V4.86223H82.0658V4.04446H92.3382V4.86223ZM101.791 15.92C102.655 15.92 103.368 15.76 103.932 15.44C104.508 15.12 104.957 14.6993 105.281 14.1778C105.617 13.6563 105.851 13.0637 105.983 12.4C106.127 11.7363 106.199 11.0667 106.199 10.3911V4.04446H107.116V10.3911C107.116 11.2326 107.02 12.0385 106.828 12.8089C106.648 13.5793 106.349 14.2608 105.929 14.8533C105.509 15.4341 104.964 15.8963 104.292 16.24C103.62 16.5837 102.793 16.7556 101.809 16.7556C100.79 16.7556 99.938 16.5778 99.2544 16.2222C98.5708 15.8548 98.0192 15.3748 97.5993 14.7822C97.1917 14.1778 96.8977 13.4963 96.7178 12.7378C96.55 11.9793 96.4659 11.197 96.4659 10.3911V4.04446H97.3834V10.3911C97.3834 11.0904 97.4495 11.7719 97.5813 12.4356C97.7252 13.0993 97.9653 13.6919 98.3009 14.2133C98.6489 14.723 99.1046 15.1378 99.6682 15.4578C100.232 15.7659 100.94 15.92 101.791 15.92ZM112.601 16.6667V4.04446H117.908C118.448 4.04446 118.945 4.15704 119.401 4.38223C119.857 4.60743 120.247 4.90965 120.57 5.2889C120.906 5.65632 121.164 6.07704 121.344 6.55112C121.536 7.01334 121.632 7.48148 121.632 7.95557C121.632 8.41779 121.56 8.86815 121.416 9.30668C121.272 9.73334 121.068 10.1185 120.804 10.4622C120.541 10.8059 120.223 11.0904 119.851 11.3156C119.479 11.5408 119.071 11.6889 118.627 11.76L121.812 16.6667H120.75L117.656 11.9022H113.518V16.6667H112.601ZM113.518 11.0667H117.998C118.406 11.0667 118.778 10.9778 119.113 10.8C119.449 10.6222 119.737 10.3911 119.977 10.1067C120.217 9.81037 120.397 9.47854 120.517 9.11112C120.649 8.73187 120.714 8.34668 120.714 7.95557C120.714 7.55259 120.636 7.16743 120.48 6.80001C120.337 6.42076 120.133 6.0889 119.869 5.80446C119.617 5.52001 119.317 5.29482 118.969 5.1289C118.634 4.95112 118.268 4.86223 117.872 4.86223H113.518V11.0667ZM135.132 15.8489V16.6667H126.623V4.04446H134.97V4.86223H127.54V9.82223H134.035V10.6045H127.54V15.8489H135.132ZM152.028 16.7556C151.14 16.7556 150.331 16.5719 149.599 16.2045C148.867 15.837 148.238 15.357 147.71 14.7645C147.182 14.1719 146.774 13.4904 146.487 12.72C146.199 11.9496 146.055 11.1615 146.055 10.3556C146.055 9.51409 146.205 8.70815 146.505 7.93779C146.816 7.16743 147.236 6.48593 147.764 5.89334C148.304 5.30076 148.939 4.83259 149.671 4.4889C150.403 4.13334 151.194 3.95557 152.046 3.95557C152.933 3.95557 153.743 4.14521 154.474 4.52446C155.218 4.89187 155.847 5.37779 156.363 5.98223C156.891 6.58668 157.299 7.27409 157.587 8.04446C157.874 8.80298 158.018 9.57334 158.018 10.3556C158.018 11.2089 157.862 12.0208 157.551 12.7911C157.251 13.5615 156.831 14.243 156.291 14.8356C155.764 15.4163 155.134 15.8845 154.402 16.24C153.671 16.5837 152.879 16.7556 152.028 16.7556ZM146.972 10.3556C146.972 11.0785 147.092 11.7778 147.332 12.4533C147.584 13.117 147.932 13.7096 148.376 14.2311C148.831 14.7408 149.371 15.1496 149.995 15.4578C150.618 15.7659 151.302 15.92 152.046 15.92C152.813 15.92 153.503 15.76 154.114 15.44C154.738 15.12 155.266 14.6993 155.698 14.1778C156.141 13.6445 156.483 13.0459 156.723 12.3822C156.963 11.7185 157.083 11.043 157.083 10.3556C157.083 9.63259 156.957 8.93926 156.705 8.27557C156.453 7.60001 156.099 7.00743 155.644 6.49779C155.2 5.97632 154.672 5.56148 154.06 5.25334C153.449 4.94521 152.777 4.79112 152.046 4.79112C151.278 4.79112 150.582 4.95112 149.959 5.27112C149.335 5.59112 148.801 6.01779 148.358 6.55112C147.914 7.07259 147.572 7.66521 147.332 8.3289C147.092 8.99259 146.972 9.66815 146.972 10.3556ZM162.82 16.6667V4.04446H171.132V4.86223H163.738V9.87557H170.016V10.6578H163.738V16.6667H162.82Z" fill="white"/>
<path id="Vector_2" d="M11.3372 42.2743H36.4V26.3779H43.5373V65.2777H36.4V49.3813H11.3372V65.2777H4.19995V26.3779H11.3372V42.2743ZM91.2471 39.453C91.2471 41.0627 91.0458 42.5002 90.6433 43.7663C90.2407 45.0321 89.6917 46.1532 88.9963 47.1299C88.3191 48.0882 87.5321 48.9113 86.6354 49.5985C85.7387 50.2857 84.7961 50.8552 83.8081 51.3074C82.838 51.7416 81.8497 52.058 80.8433 52.2568C79.855 52.4557 78.9217 52.5552 78.0433 52.5552L92.9491 65.2777H81.9137L67.0355 52.5552H61.9021V45.5024H78.0433C78.94 45.4299 79.7543 45.2491 80.4863 44.9596C81.2366 44.6524 81.8772 44.2455 82.4079 43.7391C82.9569 43.2327 83.378 42.6268 83.6706 41.9216C83.9635 41.1982 84.11 40.3755 84.11 39.453V35.0043C84.11 34.6063 84.0549 34.308 83.9452 34.1091C83.8536 33.8921 83.7257 33.7382 83.561 33.648C83.4145 33.5393 83.2498 33.476 83.0668 33.458C82.9021 33.4399 82.7464 33.431 82.6002 33.431H59.0472V65.2777H51.9099V29.9316C51.9099 29.4432 52.0012 28.9821 52.1845 28.548C52.3675 28.1141 52.6143 27.7343 52.9255 27.4088C53.2549 27.0832 53.6392 26.83 54.0785 26.6492C54.5176 26.4684 54.9935 26.3779 55.5059 26.3779H82.6002C84.1923 26.3779 85.5374 26.6673 86.6354 27.246C87.7333 27.8066 88.621 28.521 89.2982 29.3891C89.9936 30.2391 90.4878 31.1613 90.7804 32.156C91.0916 33.1505 91.2471 34.0818 91.2471 34.9499V39.453Z" fill="white"/>
<path id="Vector_3" d="M24.4556 70.5557H170.627V113.889H24.4556V70.5557Z" fill="white"/>
<path id="Vector_4" d="M67.5867 84.6181H57.5197V105H52.9518V84.6181H42.8674V80.1042H67.5867V84.6181ZM91.6732 94.8265H77.2492V90.2779H91.6732V94.8265ZM93.7288 105H77.2492C76.6167 105 75.9257 104.89 75.1763 104.67C74.4266 104.45 73.7298 104.091 73.0855 103.594C72.4531 103.085 71.9201 102.431 71.4866 101.632C71.065 100.822 70.8542 99.8323 70.8542 98.6634V82.3784C70.8542 82.0662 70.9129 81.7709 71.0301 81.4931C71.1471 81.2154 71.3053 80.9723 71.5043 80.764C71.7152 80.5556 71.9611 80.3937 72.2422 80.2779C72.5233 80.162 72.8278 80.1042 73.1558 80.1042H93.7288V84.6181H75.422V98.6634C75.422 99.2534 75.5803 99.7051 75.8965 100.017C76.2127 100.33 76.6754 100.486 77.2846 100.486H93.7288V105ZM120.538 105H104.059C103.638 105 103.18 104.954 102.689 104.861C102.208 104.757 101.728 104.601 101.248 104.392C100.78 104.184 100.329 103.918 99.8953 103.594C99.4618 103.258 99.0753 102.859 98.7358 102.396C98.4077 101.921 98.1443 101.377 97.9453 100.764C97.746 100.139 97.6465 99.4387 97.6465 98.6634V86.4412C97.6465 86.0245 97.6934 85.5787 97.7871 85.1042C97.8925 84.6181 98.0504 84.1437 98.2613 83.6806C98.4721 83.2062 98.7476 82.7548 99.0871 82.3265C99.4267 81.8981 99.8309 81.522 100.299 81.1979C100.78 80.8623 101.33 80.5962 101.951 80.3995C102.572 80.2026 103.274 80.1042 104.059 80.1042H120.538V84.6181H104.059C103.462 84.6181 103.005 84.7745 102.689 85.0868C102.373 85.3995 102.214 85.8623 102.214 86.4756V98.6634C102.214 99.242 102.373 99.6934 102.689 100.017C103.017 100.33 103.473 100.486 104.059 100.486H120.538V105ZM129.463 90.2779H145.504V80.1042H150.071V105H145.504V94.8265H129.463V105H124.895V80.1042H129.463V90.2779Z" fill="#1E1E1E"/>
</g>
</svg>
