<svg width="0" height="0" class="hidden">
  <symbol xmlns="http://www.w3.org/2000/svg" viewBox="0 0 44 45" id="ic_telegram">
    <path d="M22 0C9.856 0 0 10.08 0 22.5C0 34.92 9.856 45 22 45C34.144 45 44 34.92 44 22.5C44 10.08 34.144 0 22 0ZM32.208 15.3C31.878 18.855 30.448 27.495 29.722 31.4775C29.414 33.165 28.798 33.7275 28.226 33.795C26.95 33.9075 25.982 32.94 24.75 32.1075C22.814 30.8025 21.714 29.9925 19.844 28.7325C17.666 27.27 19.074 26.46 20.328 25.155C20.658 24.8175 26.29 19.575 26.4 19.1025C26.4153 19.0309 26.4132 18.9566 26.3941 18.8861C26.3749 18.8155 26.3392 18.7508 26.29 18.6975C26.158 18.585 25.982 18.63 25.828 18.6525C25.63 18.6975 22.55 20.79 16.544 24.93C15.664 25.5375 14.872 25.8525 14.168 25.83C13.376 25.8075 11.88 25.38 10.758 24.9975C9.372 24.5475 8.294 24.3 8.382 23.5125C8.426 23.1075 8.976 22.7025 10.01 22.275C16.434 19.4175 20.702 17.5275 22.836 16.6275C28.952 14.0175 30.206 13.5675 31.042 13.5675C31.218 13.5675 31.636 13.6125 31.9 13.8375C32.12 14.0175 32.186 14.265 32.208 14.445C32.186 14.58 32.23 14.985 32.208 15.3Z" fill="currentColor"></path>
  </symbol>
  <symbol xmlns="http://www.w3.org/2000/svg" viewBox="0 0 23 26" id="ic_video_play">
    <path d="M23 13L0.499999 25.9904L0.5 0.00961778L23 13Z" fill="currentColor"></path>
  </symbol>
  <symbol xmlns="http://www.w3.org/2000/svg" viewBox="0 0 44 44" id="ic_whatsapp">
    <path fill-rule="evenodd" clip-rule="evenodd" d="M22 0C9.8494 0 0 9.8494 0 22C0 26.158 1.155 30.052 3.1636 33.3696L1.2012 40.04C1.08853 40.423 1.08111 40.8292 1.17974 41.2161C1.27836 41.6029 1.47938 41.956 1.76167 42.2383C2.04396 42.5206 2.39708 42.7216 2.78392 42.8202C3.17075 42.9189 3.57702 42.9115 3.96 42.7988L10.6304 40.8364C14.0595 42.9112 17.9921 44.0054 22 44C34.1506 44 44 34.1506 44 22C44 9.8494 34.1506 0 22 0ZM17.0236 26.9786C21.4742 31.427 25.7224 32.0144 27.2228 32.0694C29.5042 32.153 31.7262 30.4106 32.5908 28.3888C32.7 28.1373 32.7396 27.8611 32.7055 27.589C32.6715 27.317 32.565 27.059 32.3972 26.8422C31.1916 25.3022 29.5614 24.1956 27.9686 23.0956C27.636 22.8656 27.2274 22.7734 26.8283 22.8382C26.4292 22.903 26.0707 23.1198 25.828 23.4432L24.508 25.4562C24.4386 25.5644 24.3305 25.642 24.2057 25.6731C24.081 25.7042 23.9491 25.6864 23.837 25.6234C22.9416 25.1108 21.637 24.2396 20.6998 23.3024C19.7626 22.3652 18.9442 21.12 18.4844 20.2818C18.4274 20.1753 18.4109 20.0518 18.438 19.934C18.4651 19.8163 18.534 19.7124 18.6318 19.6416L20.6646 18.1324C20.9547 17.8801 21.1419 17.53 21.1906 17.1487C21.2393 16.7674 21.146 16.3814 20.9286 16.0644C19.943 14.6212 18.7946 12.7864 17.1292 11.5698C16.9143 11.414 16.6625 11.3169 16.3987 11.288C16.1348 11.2591 15.868 11.2993 15.6244 11.4048C13.6004 12.2716 11.8492 14.4936 11.9328 16.7794C11.9878 18.2798 12.5752 22.528 17.0236 26.9786Z" fill="currentColor"></path>
  </symbol>
</svg>